Coordinates
version=1
nRows=21
nColumns=22
inDegrees=yes

Units are S.I. units (second, meters, Newtons, ...)
If the header above contains a line with 'inDegrees', this indicates whether rotational values are in degrees (yes) or radians (no).

endheader
time	pelvis_tilt	pelvis_list	pelvis_rotation	pelvis_tx	pelvis_ty	pelvis_tz	hip_flexion_r	hip_adduction_r	hip_rotation_r	knee_angle_r	ankle_angle_r	subtalar_angle_r	hip_flexion_l	hip_adduction_l	hip_rotation_l	knee_angle_l	ankle_angle_l	subtalar_angle_l	lumbar_extension	lumbar_bending	lumbar_rotation
      0.01000000	      2.86370482	     -4.24031660	     -4.56970197	     -1.38163200	      1.02801505	     -0.18130149	     -2.74134559	      6.40136718	     -6.04368223	     -9.29241640	      9.18399169	     -1.83195893	     -2.38374648	     -3.81623733	     -6.48786475	    -11.37059980	     12.22909334	     -2.53996710	    -11.67995933	      3.23201903	      3.99671972
      0.02000000	      2.86408747	     -4.23231612	     -4.55091566	     -1.38157616	      1.02800605	     -0.18123868	     -2.74509116	      6.39966236	     -6.04414637	     -9.29368158	      9.18426711	     -1.83232281	     -2.38533001	     -3.81492450	     -6.48946812	    -11.36826494	     12.22919656	     -2.54054632	    -11.67378110	      3.24129980	      4.00230224
      0.03000000	      2.86837310	     -4.22708943	     -4.49348881	     -1.38147997	      1.02800100	     -0.18121805	     -2.76758923	      6.40302263	     -6.12233290	     -9.26807073	      9.19557948	     -1.84174290	     -2.39747762	     -3.81589527	     -6.42540880	    -11.34635250	     12.22167026	     -2.54536262	    -11.66471350	      3.26164518	      3.97344333
      0.04000000	      2.86880762	     -4.21669344	     -4.47513112	     -1.38142656	      1.02799195	     -0.18113383	     -2.77132481	      6.40003931	     -6.12203834	     -9.26891196	      9.19640185	     -1.84216867	     -2.39943911	     -3.81352216	     -6.42793520	    -11.34351578	     12.22167004	     -2.54539442	    -11.65874811	      3.27270373	      3.97941719
      0.05000000	      2.86237209	     -4.20644771	     -4.44832284	     -1.38133383	      1.02797542	     -0.18105108	     -2.78499437	      6.39970311	     -6.15419489	     -9.23851323	      9.21163050	     -1.84565911	     -2.40574531	     -3.81155371	     -6.41999919	    -11.31801357	     12.21836518	     -2.54302864	    -11.63823957	      3.28536092	      3.98339727
      0.06000000	      2.86098478	     -4.19642697	     -4.41277744	     -1.38124295	      1.02796594	     -0.18099393	     -2.79711771	      6.39799088	     -6.19197238	     -9.22213999	      9.22573412	     -1.85245030	     -2.41983476	     -3.80746625	     -6.38682096	    -11.28654695	     12.20893284	     -2.53630310	    -11.62266841	      3.30424750	      3.95167786
      0.07000000	      2.86177937	     -4.18616437	     -4.39971072	     -1.38119610	      1.02795876	     -0.18090227	     -2.80045961	      6.39449554	     -6.19168229	     -9.22441376	      9.22584788	     -1.85301629	     -2.42260903	     -3.80496218	     -6.38647565	    -11.28541032	     12.20844619	     -2.53582803	    -11.61726502	      3.31599625	      3.95272458
      0.08000000	      2.85225770	     -4.17433342	     -4.37506455	     -1.38109157	      1.02793820	     -0.18083178	     -2.81083653	      6.39163431	     -6.21822329	     -9.19605760	      9.23930313	     -1.85843555	     -2.43457943	     -3.79904361	     -6.37113812	    -11.24448584	     12.20328597	     -2.52956919	    -11.59117410	      3.33150845	      3.91298762
      0.09000000	      2.85264759	     -4.15633304	     -4.33260806	     -1.38101726	      1.02793098	     -0.18079776	     -2.82316638	      6.38078422	     -6.26154230	     -9.18021735	      9.24882384	     -1.87248810	     -2.44436996	     -3.78416153	     -6.30363712	    -11.22134016	     12.18196760	     -2.51363578	    -11.58152194	      3.33924497	      3.85775179
      0.10000000	      2.84498521	     -4.14826144	     -4.32882420	     -1.38093113	      1.02791117	     -0.18070760	     -2.82466360	      6.37914146	     -6.26643952	     -9.17223760	      9.25409436	     -1.87526078	     -2.45493389	     -3.78161371	     -6.31547491	    -11.19386484	     12.18433995	     -2.51161665	    -11.56407693	      3.35488730	      3.83205240
      0.11000000	      2.83574289	     -4.14041038	     -4.32574997	     -1.38084203	      1.02788890	     -0.18061516	     -2.82554223	      6.37805809	     -6.26885830	     -9.16257117	      9.26170039	     -1.87902601	     -2.46536398	     -3.77896049	     -6.32122733	    -11.16428478	     12.18281263	     -2.50819083	    -11.54503736	      3.36924907	      3.80165413
      0.12000000	      2.82608663	     -4.13342245	     -4.32515567	     -1.38075829	      1.02786685	     -0.18052007	     -2.82374587	      6.37753855	     -6.27054501	     -9.15672157	      9.26897704	     -1.88364336	     -2.47542406	     -3.77674941	     -6.32501075	    -11.13480683	     12.17955678	     -2.50407095	    -11.52794519	      3.38324363	      3.76822997
      0.13000000	      2.81641204	     -4.12751641	     -4.32724942	     -1.38068102	      1.02784539	     -0.18042385	     -2.81907830	      6.37761494	     -6.27225292	     -9.15567777	      9.27545141	     -1.88914516	     -2.48485019	     -3.77525789	     -6.32899188	    -11.10686276	     12.17581704	     -2.49978377	    -11.51348350	      3.39778217	      3.73423645
      0.14000000	      2.80672478	     -4.12302174	     -4.33310231	     -1.38061265	      1.02782549	     -0.18032654	     -2.81134112	      6.37835235	     -6.27389715	     -9.15936709	      9.28097616	     -1.89549602	     -2.49332039	     -3.77485901	     -6.33414330	    -11.08128741	     12.17229365	     -2.49576753	    -11.50250110	      3.41370086	      3.70106208
      0.15000000	      2.79677344	     -4.12036127	     -4.34352535	     -1.38055668	      1.02780748	     -0.18022437	     -2.80029741	      6.38065686	     -6.27535996	     -9.16705961	      9.28554588	     -1.90265475	     -2.50039790	     -3.77610138	     -6.34104947	    -11.05828270	     12.16924581	     -2.49228701	    -11.49584822	      3.43079970	      3.66967012
      0.16000000	      2.78651885	     -4.12015818	     -4.35786927	     -1.38051164	      1.02779094	     -0.18011428	     -2.78590669	      6.38538799	     -6.27604620	     -9.17915695	      9.28911255	     -1.91078403	     -2.50607078	     -3.78026515	     -6.35082440	    -11.03755548	     12.16668684	     -2.48940130	    -11.49269668	      3.44876202	      3.64044171
      0.17000000	      2.76082493	     -4.12774971	     -4.38183924	     -1.38048685	      1.02775292	     -0.17998728	     -2.74869804	      6.39906315	     -6.27478132	     -9.20237628	      9.29757343	     -1.94605772	     -2.49058577	     -3.79545018	     -6.37526599	    -11.02700313	     12.16260550	     -2.48102331	    -11.47839429	      3.47414145	      3.62777037
      0.18000000	      2.75334203	     -4.12803632	     -4.40552105	     -1.38045563	      1.02774498	     -0.17986596	     -2.73468597	      6.40323291	     -6.26931898	     -9.21789848	      9.29401002	     -1.95012506	     -2.49566224	     -3.79925918	     -6.38755493	    -11.01583498	     12.16627238	     -2.48047876	    -11.48307452	      3.49028755	      3.59887547
      0.19000000	      2.74166682	     -4.13671346	     -4.43325674	     -1.38045194	      1.02773196	     -0.17972897	     -2.71210940	      6.41725691	     -6.26126794	     -9.23927195	      9.29268282	     -1.95698803	     -2.49472477	     -3.81410995	     -6.41411883	    -11.00453258	     12.16854850	     -2.47996860	    -11.49255006	      3.51156179	      3.57922168
      0.20000000	      2.72025457	     -4.15480412	     -4.48200387	     -1.38044844	      1.02770220	     -0.17956050	     -2.67903386	      6.44124995	     -6.23439897	     -9.26208680	      9.29164833	     -1.97163934	     -2.47645187	     -3.84152487	     -6.47205647	    -11.01761185	     12.18046056	     -2.47820355	    -11.48961909	      3.54186220	      3.59050440
      0.21000000	      2.71245074	     -4.15722294	     -4.51374404	     -1.38043762	      1.02769222	     -0.17943157	     -2.66304737	      6.44647892	     -6.22385542	     -9.27870362	      9.28807672	     -1.97360410	     -2.47804993	     -3.84706273	     -6.48431209	    -11.01312122	     12.18337931	     -2.47722119	    -11.50074919	      3.55618648	      3.56184943
